<svg width="130" height="33" viewBox="0 0 130 33" fill="none" xmlns="http://www.w3.org/2000/svg">
<path d="M57.3623 15.2598L57.3685 15.2583V15.2166L57.3623 15.2196V15.2598Z" fill="white"/>
<path d="M80.9912 1.7131H82.1101V4.95724H82.9405V1.7131H84.0667V0.980499H80.9912V1.7131Z" fill="#F15B5F"/>
<path d="M87.7176 0.980492L86.6763 3.90038L85.6013 0.980492H84.5103V4.95724H85.3026V2.29256L86.3116 4.95724H86.9868L87.9958 2.29256V4.95724H88.7881V0.980492H87.7176Z" fill="#F15B5F"/>
<path d="M34.7282 12.5099H7.33288V1.07957H0.109863V31.5304H7.39732V20.0626H34.8937V31.5514H42.1592V1.08557H34.7282V12.5099Z" fill="#F15B5F"/>
<path d="M48.7464 8.12033H72.4628V8.96552L72.0938 9.00455L54.8549 10.5868C53.487 10.7129 52.1338 11.0522 50.9168 11.7068C50.1406 12.1241 49.4435 12.627 48.8299 13.2155C47.2408 14.7077 46.2259 16.7133 45.81 19.1663C45.6899 19.8839 45.6226 20.597 45.6226 21.2846C45.6226 24.6338 47.1149 27.4951 49.9239 29.5578C51.2654 30.5426 52.6728 31.1807 54.1036 31.4719C54.6894 31.589 55.2943 31.646 55.8918 31.646C57.0458 31.646 58.235 31.4163 59.4681 30.9405L72.0938 23.5229V31.5485H79.5233V0.983505H48.7464V8.12333V8.12033ZM57.264 23.8427C56.7866 24.1219 56.2491 24.2705 55.7116 24.2705C55.1141 24.2705 54.54 24.0904 54.0685 23.7511L54.0377 23.7256C53.1253 23.0695 52.661 22.1838 52.661 21.0939C52.661 20.8402 52.6918 20.5745 52.7401 20.3013C52.9876 18.9457 53.8458 18.0224 55.1449 17.7072C56.4439 17.4039 57.7605 17.1682 59.0405 16.946L72.0953 14.5306L72.4643 14.463V15.661L72.0953 15.8772L57.2655 23.8427H57.264Z" fill="#F15B5F"/>
<path d="M85.9851 32.3438C85.0854 32.3438 84.3316 32.1858 83.7237 31.8697C83.1158 31.5536 82.5869 31.1159 82.1371 30.5566L83.4137 29.3894C83.7663 29.8149 84.1553 30.1493 84.5809 30.3925C85.0186 30.6235 85.5231 30.739 86.0946 30.739C86.6782 30.739 87.1098 30.6295 87.3894 30.4107C87.6812 30.1797 87.8271 29.8636 87.8271 29.4623C87.8271 29.1584 87.7238 28.9031 87.5171 28.6964C87.3225 28.4775 86.976 28.3377 86.4776 28.2769L85.6022 28.1675C84.6295 28.0459 83.8635 27.7663 83.3043 27.3286C82.7571 26.8787 82.4836 26.2161 82.4836 25.3407C82.4836 24.8787 82.5687 24.4714 82.7389 24.1188C82.9091 23.7541 83.1462 23.4501 83.4502 23.2069C83.7663 22.9516 84.1371 22.7571 84.5626 22.6233C85.0003 22.4896 85.4806 22.4227 86.0034 22.4227C86.8545 22.4227 87.5475 22.5565 88.0824 22.824C88.6296 23.0914 89.1159 23.4623 89.5414 23.9364L88.3195 25.1036C88.0764 24.8118 87.7542 24.5626 87.3529 24.3559C86.9639 24.137 86.514 24.0276 86.0034 24.0276C85.4563 24.0276 85.049 24.137 84.7815 24.3559C84.5262 24.5747 84.3985 24.8605 84.3985 25.213C84.3985 25.5778 84.514 25.8514 84.745 26.0337C84.976 26.2161 85.3468 26.3498 85.8575 26.435L86.7329 26.5444C87.7785 26.7024 88.5384 27.0125 89.0125 27.4745C89.4989 27.9243 89.742 28.5322 89.742 29.2982C89.742 29.7602 89.6508 30.1797 89.4685 30.5566C89.2983 30.9213 89.049 31.2374 88.7207 31.5049C88.3925 31.7724 87.9973 31.9791 87.5353 32.125C87.0733 32.2709 86.5566 32.3438 85.9851 32.3438ZM93.7598 32.125C93.0668 32.125 92.544 31.9487 92.1914 31.5961C91.8388 31.2314 91.6625 30.7207 91.6625 30.0642V24.2647H90.1853V22.6416H90.9877C91.316 22.6416 91.5409 22.5686 91.6625 22.4227C91.7963 22.2768 91.8631 22.0398 91.8631 21.7115V20.0519H93.6504V22.6416H95.6383V24.2647H93.6504V30.5019H95.4924V32.125H93.7598ZM102.81 30.5566H102.737C102.652 30.7876 102.536 31.0125 102.39 31.2314C102.257 31.4502 102.08 31.6448 101.861 31.815C101.655 31.973 101.399 32.1007 101.095 32.1979C100.804 32.2952 100.463 32.3438 100.074 32.3438C99.0894 32.3438 98.3234 32.0277 97.7763 31.3955C97.2413 30.7633 96.9739 29.8575 96.9739 28.6781V22.6416H98.9617V28.4228C98.9617 29.894 99.5696 30.6295 100.785 30.6295C101.041 30.6295 101.29 30.5991 101.533 30.5384C101.776 30.4654 101.989 30.3621 102.171 30.2283C102.366 30.0946 102.518 29.9244 102.627 29.7177C102.749 29.511 102.81 29.2678 102.81 28.9882V22.6416H104.798V32.125H102.81V30.5566ZM112.878 30.5566H112.787C112.58 31.1159 112.24 31.5536 111.766 31.8697C111.304 32.1858 110.757 32.3438 110.124 32.3438C108.921 32.3438 107.991 31.9122 107.334 31.049C106.678 30.1736 106.349 28.9517 106.349 27.3833C106.349 25.8149 106.678 24.5991 107.334 23.7358C107.991 22.8604 108.921 22.4227 110.124 22.4227C110.757 22.4227 111.304 22.5808 111.766 22.8969C112.24 23.2009 112.58 23.6386 112.787 24.21H112.878V18.6294H114.866V32.125H112.878V30.5566ZM110.726 30.6295C111.334 30.6295 111.845 30.4836 112.258 30.1918C112.672 29.8879 112.878 29.4927 112.878 29.0064V25.7602C112.878 25.2738 112.672 24.8848 112.258 24.593C111.845 24.289 111.334 24.137 110.726 24.137C110.033 24.137 109.48 24.362 109.067 24.8118C108.653 25.2495 108.447 25.8331 108.447 26.5626V28.204C108.447 28.9335 108.653 29.5231 109.067 29.973C109.48 30.4107 110.033 30.6295 110.726 30.6295ZM117.981 20.9455C117.568 20.9455 117.264 20.8482 117.069 20.6537C116.887 20.4592 116.796 20.2099 116.796 19.906V19.596C116.796 19.292 116.887 19.0428 117.069 18.8482C117.264 18.6537 117.568 18.5564 117.981 18.5564C118.394 18.5564 118.692 18.6537 118.875 18.8482C119.057 19.0428 119.148 19.292 119.148 19.596V19.906C119.148 20.2099 119.057 20.4592 118.875 20.6537C118.692 20.8482 118.394 20.9455 117.981 20.9455ZM116.978 22.6416H118.966V32.125H116.978V22.6416ZM124.795 32.3438C124.139 32.3438 123.537 32.2283 122.99 31.9973C122.455 31.7663 121.999 31.4381 121.622 31.0125C121.245 30.5748 120.953 30.052 120.747 29.4441C120.54 28.824 120.437 28.1371 120.437 27.3833C120.437 26.6295 120.54 25.9486 120.747 25.3407C120.953 24.7206 121.245 24.1978 121.622 23.7723C121.999 23.3346 122.455 23.0003 122.99 22.7692C123.537 22.5382 124.139 22.4227 124.795 22.4227C125.452 22.4227 126.048 22.5382 126.583 22.7692C127.13 23.0003 127.592 23.3346 127.969 23.7723C128.346 24.1978 128.637 24.7206 128.844 25.3407C129.051 25.9486 129.154 26.6295 129.154 27.3833C129.154 28.1371 129.051 28.824 128.844 29.4441C128.637 30.052 128.346 30.5748 127.969 31.0125C127.592 31.4381 127.13 31.7663 126.583 31.9973C126.048 32.2283 125.452 32.3438 124.795 32.3438ZM124.795 30.7025C125.476 30.7025 126.023 30.4958 126.437 30.0824C126.85 29.6569 127.057 29.0247 127.057 28.1857V26.5808C127.057 25.7419 126.85 25.1158 126.437 24.7024C126.023 24.2769 125.476 24.0641 124.795 24.0641C124.114 24.0641 123.567 24.2769 123.154 24.7024C122.741 25.1158 122.534 25.7419 122.534 26.5808V28.1857C122.534 29.0247 122.741 29.6569 123.154 30.0824C123.567 30.4958 124.114 30.7025 124.795 30.7025Z" fill="#F15B5F"/>
</svg>
