<svg width="164" height="39" viewBox="0 0 164 39" fill="none" xmlns="http://www.w3.org/2000/svg">
<path d="M71.7319 18.2394L71.7395 18.2376V18.1868L71.7319 18.1904V18.2394Z" fill="white"/>
<path d="M101.165 1.36583H102.559V5.40698H103.593V1.36583H104.996V0.453247H101.165V1.36583Z" fill="white"/>
<path d="M109.544 0.453247L108.247 4.09047L106.908 0.453247H105.549V5.40698H106.536V2.08766L107.793 5.40698H108.634L109.891 2.08766V5.40698H110.878V0.453247H109.544Z" fill="white"/>
<path d="M43.5368 14.8151H9.41111V0.57666H0.413574V38.5085H9.49138V24.2233H43.7429V38.5347H52.7934V0.584142H43.5368V14.8151Z" fill="white"/>
<path d="M60.9992 9.34719H90.5422V10.4L90.0825 10.4486L68.6084 12.4197C66.9045 12.5767 65.2188 12.9994 63.7028 13.8147C62.7359 14.3346 61.8675 14.961 61.1032 15.6941C59.1238 17.5529 57.8595 20.0513 57.3414 23.1069C57.1918 24.0008 57.1079 24.8891 57.1079 25.7456C57.1079 29.9176 58.9669 33.4819 62.4659 36.0513C64.137 37.2781 65.8902 38.0729 67.6725 38.4356C68.4023 38.5815 69.1557 38.6526 69.9 38.6526C71.3376 38.6526 72.8189 38.3665 74.355 37.7737L90.0825 28.5338V38.531H99.3372V0.457031H60.9992V9.35093V9.34719ZM71.6094 28.9321C71.0147 29.2799 70.3452 29.4651 69.6756 29.4651C68.9313 29.4651 68.2162 29.2407 67.6287 28.818L67.5904 28.7862C66.4539 27.969 65.8756 26.8657 65.8756 25.5081C65.8756 25.192 65.9139 24.861 65.9741 24.5207C66.2824 22.832 67.3514 21.682 68.9696 21.2893C70.5878 20.9115 72.2279 20.6179 73.8223 20.3411L90.0843 17.3323L90.544 17.2481V18.7404L90.0843 19.0097L71.6112 28.9321H71.6094Z" fill="white"/>
<path d="M107.622 38.9929C106.468 38.9929 105.5 38.7901 104.72 38.3845C103.94 37.9789 103.262 37.4172 102.684 36.6996L104.322 35.2019C104.775 35.7479 105.274 36.177 105.82 36.489C106.382 36.7854 107.029 36.9336 107.762 36.9336C108.511 36.9336 109.065 36.7932 109.424 36.5124C109.798 36.216 109.986 35.8103 109.986 35.2955C109.986 34.9055 109.853 34.5779 109.588 34.3127C109.338 34.0318 108.894 33.8524 108.254 33.7744L107.131 33.634C105.883 33.478 104.9 33.1192 104.182 32.5576C103.48 31.9803 103.129 31.1301 103.129 30.0068C103.129 29.414 103.238 28.8913 103.457 28.4389C103.675 27.9709 103.979 27.5809 104.369 27.2689C104.775 26.9412 105.251 26.6916 105.797 26.52C106.358 26.3484 106.975 26.2626 107.645 26.2626C108.738 26.2626 109.627 26.4342 110.313 26.7774C111.015 27.1206 111.639 27.5965 112.185 28.2049L110.617 29.7026C110.305 29.3282 109.892 29.0084 109.377 28.7431C108.878 28.4623 108.301 28.3219 107.645 28.3219C106.943 28.3219 106.421 28.4623 106.078 28.7431C105.75 29.024 105.586 29.3906 105.586 29.843C105.586 30.311 105.734 30.662 106.031 30.8961C106.327 31.1301 106.803 31.3017 107.458 31.4109L108.582 31.5513C109.923 31.7541 110.898 32.1519 111.507 32.7448C112.131 33.322 112.443 34.102 112.443 35.0849C112.443 35.6777 112.326 36.216 112.092 36.6996C111.873 37.1676 111.553 37.5732 111.132 37.9165C110.711 38.2597 110.204 38.5249 109.611 38.7121C109.018 38.8993 108.355 38.9929 107.622 38.9929ZM117.598 38.7121C116.709 38.7121 116.038 38.4859 115.586 38.0335C115.133 37.5654 114.907 36.9102 114.907 36.0677V28.6261H113.011V26.5434H114.041C114.462 26.5434 114.751 26.4498 114.907 26.2626C115.079 26.0754 115.164 25.7712 115.164 25.3499V23.2204H117.458V26.5434H120.008V28.6261H117.458V36.6294H119.821V38.7121H117.598ZM129.211 36.6996H129.117C129.008 36.996 128.86 37.2846 128.672 37.5654C128.501 37.8462 128.275 38.0959 127.994 38.3143C127.729 38.5171 127.401 38.6809 127.011 38.8057C126.637 38.9305 126.2 38.9929 125.7 38.9929C124.437 38.9929 123.454 38.5873 122.752 37.776C122.065 36.9648 121.722 35.8025 121.722 34.2892V26.5434H124.273V33.9616C124.273 35.8493 125.053 36.7932 126.613 36.7932C126.941 36.7932 127.261 36.7542 127.573 36.6762C127.885 36.5826 128.158 36.45 128.392 36.2784C128.641 36.1068 128.836 35.8883 128.977 35.6231C129.133 35.3579 129.211 35.0459 129.211 34.6871V26.5434H131.761V38.7121H129.211V36.6996ZM142.13 36.6996H142.013C141.748 37.4172 141.311 37.9789 140.703 38.3845C140.11 38.7901 139.408 38.9929 138.596 38.9929C137.052 38.9929 135.858 38.4391 135.016 37.3314C134.174 36.2082 133.752 34.6403 133.752 32.6278C133.752 30.6152 134.174 29.0552 135.016 27.9475C135.858 26.8242 137.052 26.2626 138.596 26.2626C139.408 26.2626 140.11 26.4654 140.703 26.871C141.311 27.2611 141.748 27.8227 142.013 28.5559H142.13V21.3951H144.681V38.7121H142.13V36.6996ZM139.369 36.7932C140.149 36.7932 140.804 36.606 141.334 36.2316C141.865 35.8415 142.13 35.3345 142.13 34.7105V30.545C142.13 29.921 141.865 29.4218 141.334 29.0474C140.804 28.6573 140.149 28.4623 139.369 28.4623C138.479 28.4623 137.77 28.7509 137.239 29.3282C136.709 29.8898 136.444 30.6386 136.444 31.5747V33.6808C136.444 34.6169 136.709 35.3735 137.239 35.9507C137.77 36.5124 138.479 36.7932 139.369 36.7932ZM148.678 24.3671C148.147 24.3671 147.757 24.2423 147.508 23.9927C147.274 23.7431 147.157 23.4232 147.157 23.0332V22.6354C147.157 22.2454 147.274 21.9256 147.508 21.6759C147.757 21.4263 148.147 21.3015 148.678 21.3015C149.208 21.3015 149.59 21.4263 149.824 21.6759C150.058 21.9256 150.175 22.2454 150.175 22.6354V23.0332C150.175 23.4232 150.058 23.7431 149.824 23.9927C149.59 24.2423 149.208 24.3671 148.678 24.3671ZM147.391 26.5434H149.941V38.7121H147.391V26.5434ZM157.422 38.9929C156.579 38.9929 155.807 38.8447 155.105 38.5483C154.418 38.2519 153.833 37.8306 153.35 37.2846C152.866 36.723 152.492 36.0521 152.226 35.2721C151.961 34.4765 151.829 33.595 151.829 32.6278C151.829 31.6605 151.961 30.7869 152.226 30.0068C152.492 29.2112 152.866 28.5403 153.35 27.9943C153.833 27.4327 154.418 27.0036 155.105 26.7072C155.807 26.4108 156.579 26.2626 157.422 26.2626C158.264 26.2626 159.028 26.4108 159.715 26.7072C160.417 27.0036 161.01 27.4327 161.493 27.9943C161.977 28.5403 162.351 29.2112 162.617 30.0068C162.882 30.7869 163.014 31.6605 163.014 32.6278C163.014 33.595 162.882 34.4765 162.617 35.2721C162.351 36.0521 161.977 36.723 161.493 37.2846C161.01 37.8306 160.417 38.2519 159.715 38.5483C159.028 38.8447 158.264 38.9929 157.422 38.9929ZM157.422 36.8868C158.295 36.8868 158.997 36.6216 159.528 36.0912C160.058 35.5451 160.323 34.7339 160.323 33.6574V31.5981C160.323 30.5216 160.058 29.7182 159.528 29.1878C158.997 28.6417 158.295 28.3687 157.422 28.3687C156.548 28.3687 155.846 28.6417 155.315 29.1878C154.785 29.7182 154.52 30.5216 154.52 31.5981V33.6574C154.52 34.7339 154.785 35.5451 155.315 36.0912C155.846 36.6216 156.548 36.8868 157.422 36.8868Z" fill="white"/>
</svg>
